<svg width="22" height="23" viewBox="0 0 22 23" fill="none" xmlns="http://www.w3.org/2000/svg">
<path d="M9.88879 1.57144H20.9999H9.88879ZM9.88879 7.37642H15.4443H9.88879Z" fill="#535699"/>
<path d="M9.88879 7.37642H15.4443M9.88879 1.57144H20.9999H9.88879Z" stroke="#F8F8F8" stroke-width="2" stroke-linecap="round" stroke-linejoin="round"/>
<path d="M4.33332 1.57144H2.11111C1.49746 1.57144 1 2.22119 1 3.02269V5.92518C1 6.72668 1.49746 7.37642 2.11111 7.37642H4.33332C4.94697 7.37642 5.44443 6.72668 5.44443 5.92518V3.02269C5.44443 2.22119 4.94697 1.57144 4.33332 1.57144Z" fill="#535699" stroke="#F8F8F8" stroke-width="2" stroke-linecap="round" stroke-linejoin="round"/>
<path d="M9.88879 16.084H20.9999H9.88879ZM9.88879 21.889H15.4443H9.88879Z" fill="#535699"/>
<path d="M9.88879 21.889H15.4443M9.88879 16.084H20.9999H9.88879Z" stroke="#F8F8F8" stroke-width="2" stroke-linecap="round" stroke-linejoin="round"/>
<path d="M4.33332 16.084H2.11111C1.49746 16.084 1 16.7337 1 17.5352V20.4377C1 21.2392 1.49746 21.889 2.11111 21.889H4.33332C4.94697 21.889 5.44443 21.2392 5.44443 20.4377V17.5352C5.44443 16.7337 4.94697 16.084 4.33332 16.084Z" fill="#535699" stroke="#F8F8F8" stroke-width="2" stroke-linecap="round" stroke-linejoin="round"/>
</svg>
